<svg id="Layer_2" data-name="Layer 2" xmlns="http://www.w3.org/2000/svg" viewBox="0 0 654.81 603.31"><defs><style>.cls-1,.cls-2{stroke:#000;stroke-miterlimit:10;}.cls-2{fill:#fff;}</style></defs><title>raven</title><path class="cls-1" d="M733.5,146.5s3-23,82-23c0,0,39-27,59-21,0,0,33-4,63,22s48,82,48,82,7,22,0,41c0,0,13,108-2,117,0,0-48,159-153,197v38s0,17,39,47h15s23-21,65-14c0,0,13,10,8,17,0,0-19-17-33-5s-2,12-2,12,37,4,42,27c0,0-30-19-60-12s-20,7-20,7,23,15,19,20c0,0-28-16-51-13,0,0-24,6-45,8,0,0-43-9-53-9s-39,19-39,19,1-34,56-33c0,0,16,1-42-44v-58s-39-16-71-9-33,8-94,14c0,0-169,95-198,83,0,0-3-8,7-17,0,0-42,8-36-5s82-60,82-60-37,9-38,3c0,0-41,9,22-44,0,0,9-13,111-66,0,0,156-106,159-116s97-82,97-82,137-67,20-103C790.5,166.5,735.5,156.5,733.5,146.5Z" transform="translate(-336.41 -101.13)"/><path class="cls-2" d="M767.5,575.5v42l39,42,24-6s-31-36-28-44l-1-42Z" transform="translate(-336.41 -101.13)"/><circle class="cls-2" cx="543.59" cy="31.87" r="8.5"/></svg>